# xmcd
#
# Track frame offsets:
# 150
# 13442
# 24855
# 42353
# 57145
# 70396
# 83304
# 94744
# 106799
# 119615
#
# Disc length: 1764 seconds
#
#
# Revision: 0
# Processed by: cddbd v1.5.2PL0 Copyright (c) Steve Scherf et al.
# Submitted via: FreeRIP 2.945 
#
DISCID=7706e20a
DTITLE=Bill Anderson - Sometimes
DYEAR=1900
DGENRE=Country
TTITLE0=Sometimes
TTITLE1=Circle In A Triangle
TTITLE2=Gone At Last
TTITLE3=Come Walk With Me
TTITLE4=Can We Still Be Friends
TTITLE5=That's What Made Me Love You
TTITLE6=Without
TTITLE7=Charlie, Mary And Us
TTITLE8=I Can't Sleep With You
TTITLE9=Let Me Take You Away
EXTD=
EXTT0=
EXTT1=
EXTT2=
EXTT3=
EXTT4=
EXTT5=
EXTT6=
EXTT7=
EXTT8=
EXTT9=
PLAYORDER=
